<?xml version="1.0" encoding="UTF-8" standalone="no"?>
<!-- Created with Inkscape (http://www.inkscape.org/) -->

<svg
   xmlns:dc="http://purl.org/dc/elements/1.1/"
   xmlns:cc="http://creativecommons.org/ns#"
   xmlns:rdf="http://www.w3.org/1999/02/22-rdf-syntax-ns#"
   xmlns:svg="http://www.w3.org/2000/svg"
   xmlns="http://www.w3.org/2000/svg"
   xmlns:sodipodi="http://sodipodi.sourceforge.net/DTD/sodipodi-0.dtd"
   xmlns:inkscape="http://www.inkscape.org/namespaces/inkscape"
   width="6.3499999mm"
   height="8.4666662mm"
   viewBox="0 0 6.3499999 8.4666662"
   version="1.1"
   id="svg8"
   inkscape:version="0.92.4 (5da689c313, 2019-01-14)"
   sodipodi:docname="icon_bicycle.svg">
  <defs
     id="defs2" />
  <sodipodi:namedview
     id="base"
     pagecolor="#ffffff"
     bordercolor="#666666"
     borderopacity="1.0"
     inkscape:pageopacity="0.0"
     inkscape:pageshadow="2"
     inkscape:zoom="7.9195959"
     inkscape:cx="-36.342749"
     inkscape:cy="22.611528"
     inkscape:document-units="mm"
     inkscape:current-layer="g4571"
     showgrid="false"
     inkscape:window-width="1920"
     inkscape:window-height="1001"
     inkscape:window-x="-9"
     inkscape:window-y="-9"
     inkscape:window-maximized="1" />
  <metadata
     id="metadata5">
    <rdf:RDF>
      <cc:Work
         rdf:about="">
        <dc:format>image/svg+xml</dc:format>
        <dc:type
           rdf:resource="http://purl.org/dc/dcmitype/StillImage" />
        <dc:title></dc:title>
      </cc:Work>
    </rdf:RDF>
  </metadata>
  <g
     inkscape:label="Calque 1"
     inkscape:groupmode="layer"
     id="layer1"
     transform="translate(-86.783334,-161.23095)">
    <g
       id="g4520"
       transform="matrix(0.26458333,0,0,0.26458333,161.925,199.33095)"
       style="fill:#005b00;fill-opacity:1">
      <path
         id="path4518"
         d="m -272,-144 c -6.627,0 -12,5.373 -12,12 0,6.627 10,20 12,20 2,0 12,-13.373 12,-20 0,-6.627 -5.373,-12 -12,-12 z m 0,20 c -4.412,0 -8,-3.59 -8,-8 0,-4.41 3.588,-8 8,-8 4.412,0 8,3.59 8,8 0,4.41 -3.588,8 -8,8 z"
         inkscape:connector-curvature="0"
         style="fill:#005b00;fill-opacity:1" />
    </g>
    <g
       id="g4571"
       transform="matrix(0.07039532,0,0,0.07039532,87.684939,162.2548)">
      <circle
         id="circle4531"
         r="32"
         cy="32"
         cx="32"
         style="fill:#72c2af;fill-opacity:1" />
      <path
         id="path4533"
         d="m 46,32 c 3.308,0 6,2.692 6,6 0,3.308 -2.692,6 -6,6 -3.308,0 -6,-2.692 -6,-6 0,-3.308 2.692,-6 6,-6 m 0,-4 c -5.523,0 -10,4.477 -10,10 0,5.523 4.477,10 10,10 5.523,0 10,-4.477 10,-10 0,-5.523 -4.477,-10 -10,-10 z"
         inkscape:connector-curvature="0"
         style="opacity:0.2;fill:#231f20" />
      <path
         id="path4535"
         d="m 18,31 c 3.86,0 7,3.14 7,7 0,3.86 -3.14,7 -7,7 -3.86,0 -7,-3.14 -7,-7 0,-3.86 3.14,-7 7,-7 m 0,-3 C 12.477,28 8,32.477 8,38 8,43.523 12.477,48 18,48 23.523,48 28,43.523 28,38 28,32.477 23.523,28 18,28 Z"
         inkscape:connector-curvature="0"
         style="opacity:0.2;fill:#231f20" />
      <g
         id="g4539"
         style="fill:#ffffff;fill-opacity:1">
        <path
           id="path4537"
           d="m 18,29 c 3.86,0 7,3.14 7,7 0,3.86 -3.14,7 -7,7 -3.86,0 -7,-3.14 -7,-7 0,-3.86 3.14,-7 7,-7 m 0,-3 C 12.477,26 8,30.477 8,36 8,41.523 12.477,46 18,46 23.523,46 28,41.523 28,36 28,30.477 23.523,26 18,26 Z"
           inkscape:connector-curvature="0"
           style="fill:#ffffff;fill-opacity:1" />
      </g>
      <g
         id="g4543"
         style="fill:#ffffff;fill-opacity:1">
        <path
           id="path4541"
           d="m 46,29 c 3.86,0 7,3.14 7,7 0,3.86 -3.14,7 -7,7 -3.86,0 -7,-3.14 -7,-7 0,-3.86 3.14,-7 7,-7 m 0,-3 c -5.523,0 -10,4.477 -10,10 0,5.523 4.477,10 10,10 5.523,0 10,-4.477 10,-10 0,-5.523 -4.477,-10 -10,-10 z"
           inkscape:connector-curvature="0"
           style="fill:#ffffff;fill-opacity:1" />
      </g>
      <path
         id="path4545"
         d="m 47.334,37.314 -9,-17.5 C 38.077,19.314 37.562,19 37,19 h -5 c -0.829,0 -1.5,0.671 -1.5,1.5 0,0.829 0.671,1.5 1.5,1.5 h 4.084 l 3.086,6 H 30.427 L 28.342,23.829 C 28.087,23.321 27.568,23 27,23 h -5 c -0.829,0 -1.5,0.671 -1.5,1.5 0,0.829 0.671,1.5 1.5,1.5 h 4.073 l 1.404,2.808 -10.427,8.531 c -0.491,0.402 -0.676,1.068 -0.463,1.666 C 16.8,39.602 17.366,40 18,40 h 14 c 0.398,0 0.779,-0.158 1.061,-0.439 l 7.961,-7.961 3.645,7.086 c 0.266,0.517 0.791,0.814 1.335,0.814 0.23,0 0.465,-0.054 0.685,-0.167 0.736,-0.378 1.026,-1.282 0.647,-2.019 z M 22.202,37 28.852,31.559 31.508,36.871 31.379,37 Z M 33.744,34.634 31.927,31 h 5.452 z"
         inkscape:connector-curvature="0"
         style="opacity:0.2;fill:#231f20" />
      <polyline
         id="polyline4547"
         stroke-miterlimit="10"
         points="  46,36 37,18.5 32,18.5 "
         style="fill:none;stroke:#ffffff;stroke-width:3;stroke-linecap:round;stroke-linejoin:round;stroke-miterlimit:10;fill-opacity:1" />
      <polyline
         id="polyline4549"
         stroke-miterlimit="10"
         points="  33,34 27,22.5 22,22.5 "
         style="fill:none;stroke:#ffffff;stroke-width:3;stroke-linecap:round;stroke-linejoin:round;stroke-miterlimit:10;fill-opacity:1" />
      <polygon
         id="polygon4551"
         stroke-miterlimit="10"
         points="41,27.5 29,27.5 18,36.5 32,36.5 "
         style="fill:none;stroke:#ffffff;stroke-width:3;stroke-linecap:round;stroke-linejoin:round;stroke-miterlimit:10;fill-opacity:1" />
    </g>
  </g>
</svg>
