<?xml version="1.0" encoding="UTF-8" standalone="no"?>
<!-- Created with Inkscape (http://www.inkscape.org/) -->

<svg
   xmlns:dc="http://purl.org/dc/elements/1.1/"
   xmlns:cc="http://creativecommons.org/ns#"
   xmlns:rdf="http://www.w3.org/1999/02/22-rdf-syntax-ns#"
   xmlns:svg="http://www.w3.org/2000/svg"
   xmlns="http://www.w3.org/2000/svg"
   xmlns:sodipodi="http://sodipodi.sourceforge.net/DTD/sodipodi-0.dtd"
   xmlns:inkscape="http://www.inkscape.org/namespaces/inkscape"
   width="6.3499999mm"
   height="8.4666662mm"
   viewBox="0 0 6.3499999 8.4666662"
   version="1.1"
   id="svg8"
   inkscape:version="0.92.4 (5da689c313, 2019-01-14)"
   sodipodi:docname="icon_bicycle_yellow.svg">
  <defs
     id="defs2" />
  <sodipodi:namedview
     id="base"
     pagecolor="#ffffff"
     bordercolor="#666666"
     borderopacity="1.0"
     inkscape:pageopacity="0.0"
     inkscape:pageshadow="2"
     inkscape:zoom="22.4"
     inkscape:cx="10.191086"
     inkscape:cy="14.552805"
     inkscape:document-units="mm"
     inkscape:current-layer="layer1"
     showgrid="false"
     inkscape:window-width="1920"
     inkscape:window-height="1001"
     inkscape:window-x="-9"
     inkscape:window-y="-9"
     inkscape:window-maximized="1" />
  <metadata
     id="metadata5">
    <rdf:RDF>
      <cc:Work
         rdf:about="">
        <dc:format>image/svg+xml</dc:format>
        <dc:type
           rdf:resource="http://purl.org/dc/dcmitype/StillImage" />
        <dc:title></dc:title>
      </cc:Work>
    </rdf:RDF>
  </metadata>
  <g
     inkscape:label="Calque 1"
     inkscape:groupmode="layer"
     id="layer1"
     transform="translate(-103.41428,-134.01667)">
    <g
       transform="translate(16.630948,-27.214282)"
       id="layer1-2"
       inkscape:label="Calque 1">
      <g
         style="fill:#005b00;fill-opacity:1"
         transform="matrix(0.26458333,0,0,0.26458333,161.925,199.33095)"
         id="g4520">
        <path
           style="fill:#005b00;fill-opacity:1"
           inkscape:connector-curvature="0"
           d="m -272,-144 c -6.627,0 -12,5.373 -12,12 0,6.627 10,20 12,20 2,0 12,-13.373 12,-20 0,-6.627 -5.373,-12 -12,-12 z m 0,20 c -4.412,0 -8,-3.59 -8,-8 0,-4.41 3.588,-8 8,-8 4.412,0 8,3.59 8,8 0,4.41 -3.588,8 -8,8 z"
           id="path4518" />
      </g>
      <g
         transform="matrix(0.07039532,0,0,0.07039532,87.684939,162.2548)"
         id="g4571">
        <circle
           style="fill:#72c2af;fill-opacity:1"
           cx="32"
           cy="32"
           r="32"
           id="circle4531" />
        <path
           style="opacity:0.2;fill:#231f20"
           inkscape:connector-curvature="0"
           d="m 46,32 c 3.308,0 6,2.692 6,6 0,3.308 -2.692,6 -6,6 -3.308,0 -6,-2.692 -6,-6 0,-3.308 2.692,-6 6,-6 m 0,-4 c -5.523,0 -10,4.477 -10,10 0,5.523 4.477,10 10,10 5.523,0 10,-4.477 10,-10 0,-5.523 -4.477,-10 -10,-10 z"
           id="path4533" />
        <path
           style="opacity:0.2;fill:#231f20"
           inkscape:connector-curvature="0"
           d="m 18,31 c 3.86,0 7,3.14 7,7 0,3.86 -3.14,7 -7,7 -3.86,0 -7,-3.14 -7,-7 0,-3.86 3.14,-7 7,-7 m 0,-3 C 12.477,28 8,32.477 8,38 8,43.523 12.477,48 18,48 23.523,48 28,43.523 28,38 28,32.477 23.523,28 18,28 Z"
           id="path4535" />
        <g
           style="fill:#ffffff;fill-opacity:1"
           id="g4539">
          <path
             style="fill:#ffffff;fill-opacity:1"
             inkscape:connector-curvature="0"
             d="m 18,29 c 3.86,0 7,3.14 7,7 0,3.86 -3.14,7 -7,7 -3.86,0 -7,-3.14 -7,-7 0,-3.86 3.14,-7 7,-7 m 0,-3 C 12.477,26 8,30.477 8,36 8,41.523 12.477,46 18,46 23.523,46 28,41.523 28,36 28,30.477 23.523,26 18,26 Z"
             id="path4537" />
        </g>
        <g
           style="fill:#ffffff;fill-opacity:1"
           id="g4543">
          <path
             style="fill:#ffffff;fill-opacity:1"
             inkscape:connector-curvature="0"
             d="m 46,29 c 3.86,0 7,3.14 7,7 0,3.86 -3.14,7 -7,7 -3.86,0 -7,-3.14 -7,-7 0,-3.86 3.14,-7 7,-7 m 0,-3 c -5.523,0 -10,4.477 -10,10 0,5.523 4.477,10 10,10 5.523,0 10,-4.477 10,-10 0,-5.523 -4.477,-10 -10,-10 z"
             id="path4541" />
        </g>
        <path
           style="opacity:0.2;fill:#231f20"
           inkscape:connector-curvature="0"
           d="m 47.334,37.314 -9,-17.5 C 38.077,19.314 37.562,19 37,19 h -5 c -0.829,0 -1.5,0.671 -1.5,1.5 0,0.829 0.671,1.5 1.5,1.5 h 4.084 l 3.086,6 H 30.427 L 28.342,23.829 C 28.087,23.321 27.568,23 27,23 h -5 c -0.829,0 -1.5,0.671 -1.5,1.5 0,0.829 0.671,1.5 1.5,1.5 h 4.073 l 1.404,2.808 -10.427,8.531 c -0.491,0.402 -0.676,1.068 -0.463,1.666 C 16.8,39.602 17.366,40 18,40 h 14 c 0.398,0 0.779,-0.158 1.061,-0.439 l 7.961,-7.961 3.645,7.086 c 0.266,0.517 0.791,0.814 1.335,0.814 0.23,0 0.465,-0.054 0.685,-0.167 0.736,-0.378 1.026,-1.282 0.647,-2.019 z M 22.202,37 28.852,31.559 31.508,36.871 31.379,37 Z M 33.744,34.634 31.927,31 h 5.452 z"
           id="path4545" />
        <polyline
           style="fill:none;fill-opacity:1;stroke:#ffffff;stroke-width:3;stroke-linecap:round;stroke-linejoin:round;stroke-miterlimit:10"
           points="  46,36 37,18.5 32,18.5 "
           stroke-miterlimit="10"
           id="polyline4547" />
        <polyline
           style="fill:none;fill-opacity:1;stroke:#ffffff;stroke-width:3;stroke-linecap:round;stroke-linejoin:round;stroke-miterlimit:10"
           points="  33,34 27,22.5 22,22.5 "
           stroke-miterlimit="10"
           id="polyline4549" />
        <polygon
           style="fill:none;fill-opacity:1;stroke:#ffffff;stroke-width:3;stroke-linecap:round;stroke-linejoin:round;stroke-miterlimit:10"
           points="29,27.5 18,36.5 32,36.5 41,27.5 "
           stroke-miterlimit="10"
           id="polygon4551" />
      </g>
    </g>
    <path
       style="opacity:0;fill:#fc0000;fill-opacity:1;fill-rule:evenodd;stroke:#000078;stroke-width:0.33745784;stroke-linecap:round;stroke-linejoin:round;stroke-miterlimit:4;stroke-dasharray:none;stroke-opacity:0;paint-order:markers stroke fill"
       d="M 11.555952,31.824759 C 11.163173,31.608257 10.851394,31.35322 10.195986,30.7123 7.0347882,27.620985 2.9437839,21.335792 1.1762294,16.854847 0.37880796,14.833296 0.03459345,13.344293 0.03416878,11.914523 0.0328169,7.3629876 2.6768287,3.200616 6.8419989,1.1972041 8.5038337,0.39787537 10.106421,0.03979653 12.021994,0.03979653 c 2.003934,0 3.731417,0.42129866 5.511969,1.34426007 1.100043,0.5702142 1.990057,1.2244403 2.906102,2.1361983 1.882673,1.8738622 3.03282,4.1805292 3.439972,6.8990061 0.09207,0.614709 0.07884,2.428156 -0.02165,2.96875 -0.534708,2.876469 -2.221609,6.585144 -4.837519,10.635354 -2.422324,3.750479 -5.231592,7.08188 -6.57634,7.798624 -0.338884,0.180623 -0.564638,0.181326 -0.888576,0.0028 z m 1.634473,-11.009074 c 3.029102,-0.42997 5.730671,-2.642774 6.752096,-5.530514 0.344775,-0.974739 0.491592,-1.841325 0.491592,-2.901624 0,-1.393266 -0.27814,-2.5931464 -0.879585,-3.7944821 C 18.190502,5.8645412 15.551947,4.096821 12.528428,3.8818756 9.0941762,3.6377308 5.8517699,5.4769434 4.3089598,8.5442608 3.6745495,9.8055555 3.4109406,10.932558 3.4109406,12.383547 c 0,0.913547 0.056601,1.373352 0.2692743,2.1875 0.6190944,2.369988 2.2708577,4.381109 4.4911063,5.468193 1.5552849,0.761503 3.2631148,1.025701 5.0191038,0.776445 z"
       id="path849"
       inkscape:connector-curvature="0"
       transform="matrix(0.26458333,0,0,0.26458333,103.41428,134.01667)" />
    <path
       style="opacity:0;fill:#fc0000;fill-opacity:1;fill-rule:evenodd;stroke:#000078;stroke-width:0.33745784;stroke-linecap:round;stroke-linejoin:round;stroke-miterlimit:4;stroke-dasharray:none;stroke-opacity:0;paint-order:markers stroke fill"
       d="M 11.555952,31.824759 C 11.163173,31.608257 10.851394,31.35322 10.195986,30.7123 7.0347882,27.620985 2.9437839,21.335792 1.1762294,16.854847 0.37880796,14.833296 0.03459345,13.344293 0.03416878,11.914523 0.0328169,7.3629876 2.6768287,3.200616 6.8419989,1.1972041 8.5038337,0.39787537 10.106421,0.03979653 12.021994,0.03979653 c 2.003934,0 3.731417,0.42129866 5.511969,1.34426007 1.100043,0.5702142 1.990057,1.2244403 2.906102,2.1361983 1.882673,1.8738622 3.03282,4.1805292 3.439972,6.8990061 0.09207,0.614709 0.07884,2.428156 -0.02165,2.96875 -0.534708,2.876469 -2.221609,6.585144 -4.837519,10.635354 -2.422324,3.750479 -5.231592,7.08188 -6.57634,7.798624 -0.338884,0.180623 -0.564638,0.181326 -0.888576,0.0028 z m 1.634473,-11.009074 c 3.029102,-0.42997 5.730671,-2.642774 6.752096,-5.530514 0.344775,-0.974739 0.491592,-1.841325 0.491592,-2.901624 0,-1.393266 -0.27814,-2.5931464 -0.879585,-3.7944821 C 18.190502,5.8645412 15.551947,4.096821 12.528428,3.8818756 9.0941762,3.6377308 5.8517699,5.4769434 4.3089598,8.5442608 3.6745495,9.8055555 3.4109406,10.932558 3.4109406,12.383547 c 0,0.913547 0.056601,1.373352 0.2692743,2.1875 0.6190944,2.369988 2.2708577,4.381109 4.4911063,5.468193 1.5552849,0.761503 3.2631148,1.025701 5.0191038,0.776445 z"
       id="path851"
       inkscape:connector-curvature="0"
       transform="matrix(0.26458333,0,0,0.26458333,103.41428,134.01667)" />
    <path
       style="opacity:1;fill:#ff9700;fill-opacity:1;fill-rule:evenodd;stroke:#ff9700;stroke-width:0.33745784;stroke-linecap:round;stroke-linejoin:round;stroke-miterlimit:4;stroke-dasharray:none;stroke-opacity:1;paint-order:markers stroke fill"
       d="M 11.555952,31.824759 C 11.163173,31.608257 10.851394,31.35322 10.195986,30.7123 7.0347882,27.620985 2.9437839,21.335792 1.1762294,16.854847 0.37880796,14.833296 0.03459345,13.344293 0.03416878,11.914523 0.0328169,7.3629876 2.6768287,3.200616 6.8419989,1.1972041 8.5038337,0.39787537 10.106421,0.03979653 12.021994,0.03979653 c 2.003934,0 3.731417,0.42129866 5.511969,1.34426007 1.100043,0.5702142 1.990057,1.2244403 2.906102,2.1361983 1.882673,1.8738622 3.03282,4.1805292 3.439972,6.8990061 0.09207,0.614709 0.07884,2.428156 -0.02165,2.96875 -0.534708,2.876469 -2.221609,6.585144 -4.837519,10.635354 -2.422324,3.750479 -5.231592,7.08188 -6.57634,7.798624 -0.338884,0.180623 -0.564638,0.181326 -0.888576,0.0028 z m 1.634473,-11.009074 c 3.029102,-0.42997 5.730671,-2.642774 6.752096,-5.530514 0.344775,-0.974739 0.491592,-1.841325 0.491592,-2.901624 0,-1.393266 -0.27814,-2.5931464 -0.879585,-3.7944821 C 18.190502,5.8645412 15.551947,4.096821 12.528428,3.8818756 9.0941762,3.6377308 5.8517699,5.4769434 4.3089598,8.5442608 3.6745495,9.8055555 3.4109406,10.932558 3.4109406,12.383547 c 0,0.913547 0.056601,1.373352 0.2692743,2.1875 0.6190944,2.369988 2.2708577,4.381109 4.4911063,5.468193 1.5552849,0.761503 3.2631148,1.025701 5.0191038,0.776445 z"
       id="path853"
       inkscape:connector-curvature="0"
       transform="matrix(0.26458333,0,0,0.26458333,103.41428,134.01667)" />
    <path
       style="opacity:1;fill:#ff7300;fill-opacity:1;fill-rule:evenodd;stroke:#ff7300;stroke-width:0.33745784;stroke-linecap:round;stroke-linejoin:round;stroke-miterlimit:4;stroke-dasharray:none;stroke-opacity:1;paint-order:markers stroke fill"
       d="M 11.105392,20.841413 C 9.1281904,20.626362 7.3329098,19.782966 5.9592757,18.423843 3.6636573,16.152476 2.8516137,12.803639 3.853184,9.7384024 4.545667,7.6191058 6.0643968,5.8489199 8.0696775,4.8237839 10.921287,3.3659891 14.256901,3.6272892 16.922964,5.5173187 c 0.469698,0.3329794 1.540687,1.4035954 1.872872,1.8722208 0.791674,1.1168414 1.286929,2.317012 1.508137,3.6547215 0.114121,0.690122 0.123158,1.900255 0.0192,2.571486 -0.295352,1.90709 -1.134131,3.535147 -2.506923,4.865901 -1.240952,1.202951 -2.75971,1.975615 -4.46693,2.272537 -0.608962,0.105911 -1.6869,0.147814 -2.243931,0.08723 z M 8.7558784,16.580402 c 0.7661826,-0.162327 1.4514916,-0.693517 1.8044006,-1.398607 0.101531,-0.202852 0.19764,-0.438321 0.213575,-0.523267 l 0.02897,-0.154446 h 0.648607 0.648606 l 0.440176,-0.432463 0.440175,-0.432464 v 0.313715 c 0,0.392176 0.132199,0.919023 0.321062,1.279514 0.209043,0.399008 0.734271,0.911767 1.140832,1.113749 0.892044,0.443172 1.893926,0.379047 2.701766,-0.172926 0.402174,-0.274793 0.670303,-0.58644 0.879119,-1.021803 0.231502,-0.482661 0.271056,-0.690483 0.280394,-1.473215 0.0064,-0.533229 -0.0084,-0.72382 -0.07224,-0.935593 -0.308302,-1.021934 -1.122021,-1.750686 -2.153575,-1.9287 -0.373295,-0.06442 -0.669933,-0.0508 -1.177712,0.05406 C 14.793836,10.88989 14.759223,10.83342 14.185749,9.7026412 13.854276,9.0490399 13.543444,8.4858658 13.495012,8.451143 13.426773,8.4022202 13.222531,8.3880108 12.58756,8.3880108 h -0.819394 l -0.130494,0.1304947 c -0.135185,0.1351848 -0.166772,0.2986616 -0.08664,0.4483924 0.02926,0.054665 0.02764,0.1284567 -0.0048,0.2216545 -0.03649,0.1046692 -0.03475,0.1733995 0.0069,0.2740401 0.09888,0.2387175 0.181461,0.264634 0.845681,0.265405 l 0.603906,7.008e-4 0.245536,0.4708907 c 0.135045,0.25899 0.252232,0.489701 0.260416,0.512692 0.009,0.02517 -0.381715,0.04172 -0.982142,0.04161 l -0.997024,-1.95e-4 -0.30433,-0.579726 C 11.057793,9.85512 10.877542,9.5639128 10.824617,9.5268423 c -0.07727,-0.054119 -0.256525,-0.067401 -0.9096987,-0.067401 -0.7858741,0 -0.8175437,0.0035 -0.9335531,0.1032911 -0.084321,0.07253 -0.1181554,0.142329 -0.1136112,0.234375 0.00356,0.072096 0.00605,0.2747706 0.00552,0.4503876 -8.973e-4,0.302491 0.00631,0.32541 0.1368683,0.435268 0.1333826,0.112234 0.1570629,0.115964 0.7361616,0.115964 h 0.5983451 l 0.08799,0.172471 0.08799,0.172471 -0.227705,0.18523 -0.227705,0.185229 -0.1383934,-0.112682 C 8.7970189,10.481539 7.1829436,10.59129 6.2218133,11.653373 5.7233761,12.204164 5.5248186,12.783426 5.528187,13.676924 c 0.00384,1.019893 0.2141655,1.592366 0.7959347,2.166456 0.6817296,0.672732 1.5265981,0.928797 2.4317611,0.737024 z"
       id="path855"
       inkscape:connector-curvature="0"
       transform="matrix(0.26458333,0,0,0.26458333,103.41428,134.01667)" />
  </g>
</svg>
