<?xml version="1.0" encoding="UTF-8" standalone="no"?>
<!-- Created with Inkscape (http://www.inkscape.org/) -->

<svg
   xmlns:dc="http://purl.org/dc/elements/1.1/"
   xmlns:cc="http://creativecommons.org/ns#"
   xmlns:rdf="http://www.w3.org/1999/02/22-rdf-syntax-ns#"
   xmlns:svg="http://www.w3.org/2000/svg"
   xmlns="http://www.w3.org/2000/svg"
   xmlns:sodipodi="http://sodipodi.sourceforge.net/DTD/sodipodi-0.dtd"
   xmlns:inkscape="http://www.inkscape.org/namespaces/inkscape"
   width="29.051764mm"
   height="22.673996mm"
   viewBox="0 0 29.051763 22.673996"
   version="1.1"
   id="svg8"
   inkscape:version="0.92.4 (5da689c313, 2019-01-14)"
   sodipodi:docname="logo.svg">
  <defs
     id="defs2" />
  <sodipodi:namedview
     id="base"
     pagecolor="#ffffff"
     bordercolor="#666666"
     borderopacity="1.0"
     inkscape:pageopacity="0.0"
     inkscape:pageshadow="2"
     inkscape:zoom="3.959798"
     inkscape:cx="3.1235106"
     inkscape:cy="54.184565"
     inkscape:document-units="mm"
     inkscape:current-layer="layer1"
     showgrid="false"
     inkscape:window-width="1920"
     inkscape:window-height="1001"
     inkscape:window-x="-9"
     inkscape:window-y="-9"
     inkscape:window-maximized="1" />
  <metadata
     id="metadata5">
    <rdf:RDF>
      <cc:Work
         rdf:about="">
        <dc:format>image/svg+xml</dc:format>
        <dc:type
           rdf:resource="http://purl.org/dc/dcmitype/StillImage" />
        <dc:title />
      </cc:Work>
    </rdf:RDF>
  </metadata>
  <g
     inkscape:label="Calque 1"
     inkscape:groupmode="layer"
     id="layer1"
     transform="translate(-44.223225,-156.64313)">
    <path
       style="opacity:1;fill:#78d0fd;fill-opacity:0;fill-rule:evenodd;stroke:#d20000;stroke-width:0;stroke-linecap:round;stroke-linejoin:round;stroke-miterlimit:4;stroke-dasharray:none;stroke-opacity:1;paint-order:markers fill stroke"
       d="m 169.67142,254.68646 c -12.77064,-40.31147 -36.20686,-133.14604 -38.70474,-153.3156 -1.26707,-10.231233 1.19639,-19.421886 6.48701,-24.201644 3.89235,-3.516503 5.95055,-4.187797 9.65761,-3.149884 6.74349,1.888061 11.85145,9.092372 14.86247,20.962161 4.22302,16.647637 12.43675,130.918747 11.65918,162.204967 l -0.23056,9.27705 z"
       id="path824"
       inkscape:connector-curvature="0"
       transform="matrix(0.26458333,0,0,0.26458333,43.089294,103.77386)" />
    <path
       style="opacity:1;fill:#78d0fd;fill-opacity:0;fill-rule:evenodd;stroke:#d20000;stroke-width:0;stroke-linecap:round;stroke-linejoin:round;stroke-miterlimit:4;stroke-dasharray:none;stroke-opacity:1;paint-order:markers fill stroke"
       d="m 283.06256,56.407201 c -2.15119,-0.578077 -5.21582,-1.815576 -6.81029,-2.749997 -3.92305,-2.299058 -9.08214,-7.94511 -11.52904,-12.617233 -1.85076,-3.533864 -2.0145,-4.480361 -2.02438,-11.701991 -0.0101,-7.395149 0.11525,-8.08705 2.13211,-11.76719 2.90137,-5.294097 9.29602,-11.5556471 14.14304,-13.848652 3.57868,-1.6929903 4.80912,-1.8841578 12.12721,-1.8841578 7.6507,0 8.40884,0.1321275 12.50609,2.1795483 2.70165,1.3500318 5.75007,3.6986869 8.00969,6.1710735 9.04891,9.900948 10.70382,20.723021 4.93449,32.268475 -5.7383,11.483349 -20.21995,17.515818 -33.48892,13.950124 z"
       id="path827"
       inkscape:connector-curvature="0"
       transform="matrix(0.26458333,0,0,0.26458333,43.089294,103.77386)" />
    <path
       style="opacity:1;fill:#78d0fd;fill-opacity:0;fill-rule:evenodd;stroke:#d20000;stroke-width:0;stroke-linecap:round;stroke-linejoin:round;stroke-miterlimit:4;stroke-dasharray:none;stroke-opacity:1;paint-order:markers fill stroke"
       d="m 283.06256,56.407201 c -2.15119,-0.578077 -5.21582,-1.815576 -6.81029,-2.749997 -3.92305,-2.299058 -9.08214,-7.94511 -11.52904,-12.617233 -1.85076,-3.533864 -2.0145,-4.480361 -2.02438,-11.701991 -0.0101,-7.395149 0.11525,-8.08705 2.13211,-11.76719 2.90137,-5.294097 9.29602,-11.5556471 14.14304,-13.848652 3.57868,-1.6929903 4.80912,-1.8841578 12.12721,-1.8841578 7.6507,0 8.40884,0.1321275 12.50609,2.1795483 2.70165,1.3500318 5.75007,3.6986869 8.00969,6.1710735 9.04891,9.900948 10.70382,20.723021 4.93449,32.268475 -5.7383,11.483349 -20.21995,17.515818 -33.48892,13.950124 z"
       id="path829"
       inkscape:connector-curvature="0"
       transform="matrix(0.26458333,0,0,0.26458333,43.089294,103.77386)" />
    <path
       style="opacity:1;fill:#78d0fd;fill-opacity:0.95818817;fill-rule:evenodd;stroke:#d20000;stroke-width:0;stroke-linecap:round;stroke-linejoin:round;stroke-miterlimit:4;stroke-dasharray:none;stroke-opacity:1;paint-order:markers fill stroke"
       d=""
       id="path839"
       inkscape:connector-curvature="0"
       transform="matrix(0.26458333,0,0,0.26458333,43.089294,103.77386)" />
    <path
       style="opacity:1;fill:#78d0fd;fill-opacity:0.95818817;fill-rule:evenodd;stroke:#78d0fd;stroke-width:0;stroke-linecap:round;stroke-linejoin:round;stroke-miterlimit:4;stroke-dasharray:none;stroke-opacity:0.95686275;paint-order:markers fill stroke"
       d="M 84.355734,17.070992 C 81.610373,16.193193 79.537456,14.195914 78.515147,11.443519 77.967209,9.9682883 77.95902,7.5607156 78.497049,6.1227029 80.121206,1.7817558 84.69185,-0.73820767 88.936092,0.36727688 c 4.795073,1.24895802 7.871666,6.12230782 6.59945,10.45359012 -0.921565,3.137486 -3.172536,5.388457 -6.310022,6.310022 -1.300862,0.382098 -3.5749,0.354128 -4.869786,-0.0599 z"
       id="path863"
       inkscape:connector-curvature="0"
       transform="matrix(0.26458333,0,0,0.26458333,44.223225,156.64313)" />
    <path
       style="opacity:1;fill:#78d0fd;fill-opacity:0.95818817;fill-rule:evenodd;stroke:#78d0fd;stroke-width:0;stroke-linecap:round;stroke-linejoin:round;stroke-miterlimit:4;stroke-dasharray:none;stroke-opacity:0.95686275;paint-order:markers fill stroke"
       d="M 95.463288,35.788012 C 88.927529,35.042044 81.468447,32.519185 77.57941,29.739214 74.172352,27.303771 70.349254,22.797811 68.41138,18.933635 c -1.952373,-3.893088 -1.757877,-5.915974 0.691241,-7.189317 1.308676,-0.680406 2.909829,-0.680801 4.066221,-10e-4 1.127268,0.662675 2.198048,1.924846 2.913538,3.4343 3.411019,7.196159 4.003311,8.135883 6.813114,10.809594 2.742935,2.610082 6.155516,4.79478 11.33646,7.257482 2.52067,1.198169 3.024618,1.370732 5.181433,1.774221 1.314053,0.245829 2.790973,0.557779 3.282043,0.693223 0.83894,0.231392 0.68795,0.245734 -2.5,0.237502 -1.86607,-0.0048 -3.995535,-0.07755 -4.732142,-0.161623 z"
       id="path865"
       inkscape:connector-curvature="0"
       transform="matrix(0.26458333,0,0,0.26458333,44.223225,156.64313)" />
    <path
       style="opacity:1;fill:#78d0fd;fill-opacity:0.95818817;fill-rule:evenodd;stroke:#78d0fd;stroke-width:0;stroke-linecap:round;stroke-linejoin:round;stroke-miterlimit:4;stroke-dasharray:none;stroke-opacity:0.95686275;paint-order:markers fill stroke"
       d="m 54.130984,56.388992 c 0.06185,-0.368303 1.645715,-3.763392 3.519706,-7.544642 3.913128,-7.895724 6.384027,-13.008198 6.384027,-13.209028 0,-0.07648 -0.743304,-0.397464 -1.651786,-0.713294 -7.115007,-2.473496 -11.019502,-4.677513 -12.124911,-6.844294 -0.70065,-1.373388 -0.208562,-3.37898 1.215924,-4.955717 l 0.638045,-0.706239 h 1.861749 c 4.348224,0 7.820296,1.393183 13.238369,5.311948 2.019033,1.460321 3.293803,2.850894 4.078531,4.449038 1.375125,2.80052 0.05533,7.154179 -3.351084,11.054343 -1.929834,2.20956 -12.553807,13.132037 -13.103727,13.471907 -0.780237,0.482212 -0.834492,0.458041 -0.704843,-0.314022 z"
       id="path867"
       inkscape:connector-curvature="0"
       transform="matrix(0.26458333,0,0,0.26458333,44.223225,156.64313)" />
    <path
       style="opacity:1;fill:#78d0fd;fill-opacity:0.95818817;fill-rule:evenodd;stroke:#78d0fd;stroke-width:0;stroke-linecap:round;stroke-linejoin:round;stroke-miterlimit:4;stroke-dasharray:none;stroke-opacity:0.95686275;paint-order:markers fill stroke"
       d="m 51.595989,79.380064 c -0.31005,-0.736607 -0.889391,-2.424107 -1.287424,-3.75 -0.398033,-1.325893 -1.215745,-4.058036 -1.817138,-6.071429 -0.601393,-2.013393 -1.848324,-6.633928 -2.770958,-10.267857 -0.922635,-3.633928 -2.242724,-8.776786 -2.933531,-11.428571 -0.690807,-2.651786 -1.572459,-6.348215 -1.959227,-8.214286 -0.386769,-1.866071 -0.963895,-4.4375 -1.282504,-5.714286 -0.528544,-2.118074 -0.580186,-2.57171 -0.589532,-5.178571 -0.0098,-2.733942 0.01032,-2.901006 0.466574,-3.874375 0.570371,-1.216813 1.73053,-2.42673 2.8436,-2.965558 0.769462,-0.37249 0.851733,-0.378596 1.602485,-0.118938 1.155977,0.399809 2.396673,1.380672 3.115123,2.462737 0.747781,1.126238 1.574479,3.462098 1.952293,5.516258 1.001261,5.443819 3.454439,41.783462 3.282371,48.622733 l -0.0584,2.321429 z"
       id="path869"
       inkscape:connector-curvature="0"
       transform="matrix(0.26458333,0,0,0.26458333,44.223225,156.64313)" />
    <path
       style="opacity:1;fill:#78d0fd;fill-opacity:0.95818817;fill-rule:evenodd;stroke:#78d0fd;stroke-width:0;stroke-linecap:round;stroke-linejoin:round;stroke-miterlimit:4;stroke-dasharray:none;stroke-opacity:0.95686275;paint-order:markers fill stroke"
       d="m 47.909438,179.08706 c -1.704092,-0.38067 -3.097726,-1.92037 -3.508766,-3.87653 -0.295032,-1.40405 -0.04602,-3.22786 0.620993,-4.54829 1.14299,-2.26269 3.242144,-3.79516 5.326607,-3.88866 1.330818,-0.0597 2.41369,0.3559 3.346543,1.28436 0.729428,0.726 1.104025,1.39193 1.411244,2.50879 0.09432,0.3429 0.118364,0.67337 0.114224,1.5702 -0.0047,1.01889 -0.02397,1.20449 -0.187053,1.80172 -0.648214,2.3739 -2.354958,4.27761 -4.47752,4.99425 -0.516625,0.17443 -0.729227,0.20885 -1.41015,0.22829 -0.535664,0.0153 -0.945971,-0.009 -1.236122,-0.0741 z m 2.24868,-0.64053 c 1.237728,-0.31134 2.491662,-1.26627 3.359239,-2.55825 0.623832,-0.92899 0.989055,-1.91566 1.146197,-3.09651 0.254929,-1.91568 -0.567527,-3.9365 -1.971412,-4.84388 -0.918943,-0.59394 -2.25666,-0.77924 -3.279313,-0.45425 -0.621181,0.1974 -1.377969,0.58324 -1.870886,0.95384 -1.182189,0.88884 -2.137474,2.36779 -2.518001,3.89829 -0.205152,0.82513 -0.203654,2.22334 0.0032,2.9984 0.664498,2.48964 2.692353,3.71575 5.130964,3.10236 z"
       id="path907"
       inkscape:connector-curvature="0" />
    <path
       style="opacity:1;fill:#78d0fd;fill-opacity:0.95818817;fill-rule:evenodd;stroke:#78d0fd;stroke-width:0;stroke-linecap:round;stroke-linejoin:round;stroke-miterlimit:4;stroke-dasharray:none;stroke-opacity:0.95686275;paint-order:markers fill stroke"
       d="m 65.640183,179.19289 c -1.633504,-0.46753 -2.854434,-1.8135 -3.309348,-3.64827 -0.121065,-0.48829 -0.148432,-0.78352 -0.145545,-1.57021 0.0032,-0.86001 0.0266,-1.05684 0.208723,-1.75217 0.652109,-2.48972 2.448876,-4.42196 4.781403,-5.14193 0.630137,-0.1945 1.804458,-0.20873 2.449671,-0.0297 2.263919,0.62826 3.649617,2.80133 3.520322,5.52062 -0.06235,1.31137 -0.505875,2.67359 -1.222019,3.75324 -0.403901,0.60892 -1.263703,1.51392 -1.807094,1.90209 -0.533087,0.3808 -1.549502,0.86035 -2.097076,0.98941 -0.60051,0.14154 -1.846051,0.12944 -2.379037,-0.0231 z m 2.10013,-0.51379 c 1.658213,-0.34183 3.23034,-1.64454 4.105296,-3.40175 0.270741,-0.54374 0.545301,-1.35934 0.657736,-1.95385 0.12272,-0.64889 0.04678,-2.14347 -0.138379,-2.72337 -0.627967,-1.96672 -2.060105,-3.107 -3.902248,-3.107 -0.682086,0 -1.257918,0.14254 -2.011457,0.49791 -1.024836,0.48332 -1.866898,1.22833 -2.535603,2.24336 -0.725527,1.10128 -1.085808,2.18021 -1.152845,3.45242 -0.04805,0.91183 0.04816,1.58183 0.338738,2.35893 0.390088,1.04323 1.049569,1.81166 1.969808,2.29524 0.818409,0.43006 1.688311,0.54026 2.668954,0.33811 z"
       id="path909"
       inkscape:connector-curvature="0" />
  </g>
</svg>
