<svg height="480pt" viewBox="0 0 480.00133 480" width="480pt" xmlns="http://www.w3.org/2000/svg"><path d="m479.382812 468.917969-80-192c-1.242187-2.980469-4.152343-4.917969-7.382812-4.917969h-128v-74.3125l178.632812-62.136719c3.210938-1.121093 5.359376-4.152343 5.359376-7.550781 0-3.402344-2.148438-6.429688-5.359376-7.554688l-178.632812-62.132812v-5.144531c11.347656-12.867188 10.53125-32.390625-1.847656-44.261719-12.382813-11.875-31.921875-11.875-44.300782 0-12.378906 11.871094-13.195312 31.394531-1.851562 44.261719v218.832031h-128c-3.226562 0-6.140625 1.9375-7.382812 4.917969l-80 192c-1.03125 2.46875-.757813 5.289062.726562 7.515625 1.484375 2.226562 3.980469 3.566406 6.65625 3.566406h464c2.675781 0 5.175781-1.339844 6.660156-3.566406 1.480469-2.226563 1.753906-5.046875.722656-7.515625zm-215.382812-393.671875 151.648438 52.753906-151.648438 52.75zm103.199219 240.3125c4.191406-8.550782 5.320312-18.277344 3.203125-27.558594h16.285156l51.3125 123.199219c-8.035156 7.921875-18.777344 12.496093-30.054688 12.800781h-.28125c-16.421874-.417969-31.347656-9.660156-39.039062-24.175781 4.703125-7.066407 7.265625-15.339844 7.375-23.824219 0-16.113281-9.488281-30.890625-25.855469-42.808594 7.367188-3.976562 13.324219-10.136718 17.054688-17.632812zm-103.199219-27.558594h89.914062c2.332032 6.6875 1.949219 14.027344-1.074218 20.4375-4.152344 7.714844-11.703125 13.011719-20.367188 14.296875-21.601562-9.875-44.785156-15.832031-68.472656-17.589844zm-24-272c8.835938 0 16 7.164062 16 16 .039062 4.511719-1.875 8.820312-5.253906 11.816406-1.742188 1.515625-2.742188 3.710938-2.746094 6.023438v318.160156h-16v-318.160156c0-2.3125-1-4.507813-2.742188-6.023438-3.378906-2.996094-5.296874-7.304687-5.257812-11.816406 0-8.835938 7.164062-16 16-16zm-146.664062 272h122.664062v17.144531c-24.085938 1.746094-47.648438 7.867188-69.542969 18.054688-13.390625 2.132812-27.09375 1.15625-40.046875-2.855469-7.839844-2.5-15.28125-6.109375-22.097656-10.722656zm-73.335938 176 58.046875-139.320312c13.246094 8.40625 28.285156 13.570312 43.898437 15.078124-10.839843 8.996094-17.363281 22.164063-17.945312 36.242188.234375 10.714844 4.21875 21.011719 11.257812 29.09375-14.042968.421875-27.710937 4.625-39.570312 12.160156-16.695312 10.878906-28.804688 27.515625-34.03125 46.746094zm38.457031 0c4.609375-13.691406 13.722657-25.414062 25.855469-33.257812 15.804688-9.714844 34.957031-12.359376 52.800781-7.289063 24.726563 15.097656 61.289063 24.546875 102.886719 24.546875 4.417969 0 8-3.582031 8-8s-3.582031-8-8-8c-65.046875 0-120-25.648438-120-56 0-26.160156 41.519531-49.503906 96-54.855469v16.382813c-6.492188.730468-12.9375 1.832031-19.304688 3.304687-4.292968 1.039063-6.929687 5.363281-5.890624 9.660157 1.039062 4.292968 5.367187 6.929687 9.660156 5.890624 5.125-1.230468 10.308594-2.183593 15.535156-2.855468v22.472656c0 4.417969 3.582031 8 8 8h32c4.417969 0 8-3.582031 8-8v-22.480469c31.375 4.085938 48 15.238281 48 22.480469 0 9.789062-28.046875 24-72 24s-72-14.210938-72-24c0-3.625 4.25-8.105469 11.367188-11.960938 2.566406-1.332031 4.214843-3.949218 4.308593-6.835937.09375-2.890625-1.378906-5.609375-3.851562-7.105469-2.472657-1.5-5.5625-1.546875-8.078125-.121094-16.320313 8.855469-19.746094 19.039063-19.746094 26.023438 0 25.984375 45.335938 40 88 40s88-14.015625 88-40c0-21.601562-31.054688-34.5625-64-38.578125v-16.277344c54.480469 5.351563 96 28.695313 96 54.855469s-41.597656 49.6875-96.75 54.910156c-4.394531.421875-7.617188 4.324219-7.203125 8.71875.179687 2.121094 1.203125 4.082032 2.847656 5.4375 1.640625 1.355469 3.757813 1.992188 5.875 1.765625 40.742188-3.847656 73.824219-16.585937 93.023438-34.203125 11.085937 16.796875 29.75 27.039063 49.871093 27.371094h.394532c13.277344-.234375 26.097656-4.917969 36.398437-13.304688l15.542969 37.304688zm0 0"/></svg>