<svg height="488pt" viewBox="-4 0 488 488" width="488pt" xmlns="http://www.w3.org/2000/svg"><path d="m272 440h-184c-39.746094-.042969-71.957031-32.253906-72-72v-64c.042969-39.746094 32.253906-71.957031 72-72h288c30.910156-.039062 55.960938-25.089844 56-56v-32c-.039062-30.910156-25.089844-55.960938-56-56h-224c-4.417969 0-8 3.582031-8 8s3.582031 8 8 8h224c22.082031.027344 39.972656 17.917969 40 40v32c-.027344 22.082031-17.917969 39.972656-40 40h-288c-48.578125.058594-87.9414062 39.421875-88 88v64c.0585938 48.578125 39.421875 87.941406 88 88h184c4.417969 0 8-3.582031 8-8s-3.582031-8-8-8zm0 0"/><path d="m384 40h-232c-4.417969 0-8 3.582031-8 8s3.582031 8 8 8h232c44.164062.046875 79.953125 35.835938 80 80v56c-.042969 39.746094-32.253906 71.957031-72 72h-288c-30.910156.039062-55.960938 25.089844-56 56v32c.039062 30.910156 25.089844 55.960938 56 56h168c4.417969 0 8-3.582031 8-8s-3.582031-8-8-8h-168c-22.082031-.027344-39.972656-17.917969-40-40v-32c.027344-22.082031 17.917969-39.972656 40-40h288c48.578125-.058594 87.941406-39.421875 88-88v-56c-.058594-52.996094-43.003906-95.941406-96-96zm0 0"/><path d="m88 64c0-13.253906-10.746094-24-24-24s-24 10.746094-24 24 10.746094 24 24 24 24-10.746094 24-24zm-32 0c0-4.417969 3.582031-8 8-8s8 3.582031 8 8-3.582031 8-8 8-8-3.582031-8-8zm0 0"/><path d="m384 296c-53.019531 0-96 42.980469-96 96s42.980469 96 96 96 96-42.980469 96-96c-.058594-52.996094-43.003906-95.941406-96-96zm0 176c-44.183594 0-80-35.816406-80-80s35.816406-80 80-80 80 35.816406 80 80c-.046875 44.164062-35.835938 79.953125-80 80zm0 0"/><path d="m384 320c-39.765625 0-72 32.234375-72 72s32.234375 72 72 72 72-32.234375 72-72c-.042969-39.746094-32.253906-71.957031-72-72zm0 128c-30.929688 0-56-25.070312-56-56s25.070312-56 56-56 56 25.070312 56 56c-.039062 30.910156-25.089844 55.960938-56 56zm0 0"/><path d="m392 396.6875v-44.6875c0-4.417969-3.582031-8-8-8s-8 3.582031-8 8v48c0 2.121094.84375 4.15625 2.34375 5.65625l24 24c3.140625 3.03125 8.128906 2.988281 11.214844-.097656 3.085937-3.085938 3.128906-8.074219.097656-11.214844zm0 0"/><path d="m456 136c-.003906-4.710938-.460938-9.410156-1.367188-14.03125-.855468-4.335938-5.0625-7.160156-9.402343-6.304688-4.335938.855469-7.15625 5.0625-6.300781 9.398438.710937 3.601562 1.070312 7.265625 1.070312 10.9375v3.441406c0 4.417969 3.582031 8 8 8s8-3.582031 8-8zm0 0"/><path d="m437.464844 200.742188c-1.394532 4.457031-3.347656 8.722656-5.808594 12.691406-2.171875 3.742187-.96875 8.535156 2.710938 10.8125 3.679687 2.28125 8.507812 1.214844 10.890624-2.398438 3.160157-5.105468 5.667969-10.59375 7.460938-16.328125 1.328125-4.214843-1.015625-8.707031-5.230469-10.03125-4.214843-1.324219-8.707031 1.015625-10.03125 5.230469zm0 0"/><path d="m456 179.441406v-16c0-4.417968-3.582031-8-8-8s-8 3.582032-8 8v16c0 4.417969 3.582031 8 8 8s8-3.582031 8-8zm0 0"/><path d="m404.511719 83.871094c.9375.367187 1.929687.558594 2.9375.5625 3.851562.015625 7.164062-2.71875 7.886719-6.5.726562-3.78125-1.351563-7.542969-4.9375-8.949219-5.59375-2.195313-11.441407-3.683594-17.40625-4.433594-4.386719-.546875-8.382813 2.5625-8.933594 6.949219-.546875 4.386719 2.5625 8.382812 6.949218 8.933594 4.628907.578125 9.164063 1.734375 13.503907 3.4375zm0 0"/><path d="m433.070312 83.3125c-2.078124-2.023438-5.085937-2.761719-7.863281-1.933594-2.777343.832032-4.890625 3.097656-5.523437 5.925782-.628906 2.832031.320312 5.78125 2.484375 7.710937 3.417969 3.1875 6.429687 6.785156 8.960937 10.710937 1.503906 2.496094 4.246094 3.980469 7.160156 3.867188 2.910157-.113281 5.53125-1.800781 6.839844-4.402344 1.308594-2.605468 1.097656-5.714844-.554687-8.121094-3.246094-5.046874-7.109375-9.667968-11.503907-13.757812zm0 0"/><path d="m417.550781 228.839844c-3.738281 2.800781-7.8125 5.125-12.125 6.921875-2.667969 1.078125-4.546875 3.503906-4.925781 6.351562-.382812 2.851563.792969 5.683594 3.082031 7.425781 2.285157 1.742188 5.332031 2.121094 7.976563.996094 5.546875-2.304687 10.785156-5.292968 15.59375-8.894531 3.535156-2.652344 4.25-7.664063 1.601562-11.199219-2.652344-3.535156-7.667968-4.253906-11.203125-1.601562zm0 0"/><path d="m152 80h16c4.417969 0 8-3.582031 8-8s-3.582031-8-8-8h-16c-4.417969 0-8 3.582031-8 8s3.582031 8 8 8zm0 0"/><path d="m208 80c4.417969 0 8-3.582031 8-8s-3.582031-8-8-8h-16c-4.417969 0-8 3.582031-8 8s3.582031 8 8 8zm0 0"/><path d="m248 80c4.417969 0 8-3.582031 8-8s-3.582031-8-8-8h-16c-4.417969 0-8 3.582031-8 8s3.582031 8 8 8zm0 0"/><path d="m384.96875 240h-15.824219c-4.417969 0-8 3.582031-8 8s3.582031 8 8 8h16.152344c4.417969-.042969 7.964844-3.660156 7.917969-8.078125-.042969-4.421875-3.660156-7.964844-8.078125-7.921875zm0 0"/><path d="m288 80c4.417969 0 8-3.582031 8-8s-3.582031-8-8-8h-16c-4.417969 0-8 3.582031-8 8s3.582031 8 8 8zm0 0"/><path d="m368 80c4.417969 0 8-3.582031 8-8s-3.582031-8-8-8h-16c-4.417969 0-8 3.582031-8 8s3.582031 8 8 8zm0 0"/><path d="m328 80c4.417969 0 8-3.582031 8-8s-3.582031-8-8-8h-16c-4.417969 0-8 3.582031-8 8s3.582031 8 8 8zm0 0"/><path d="m173.726562 432c4.417969 0 8-3.582031 8-8s-3.582031-8-8-8h-16c-4.417968 0-8 3.582031-8 8s3.582032 8 8 8zm0 0"/><path d="m93.449219 431.953125h.277343c4.417969.070313 8.058594-3.449219 8.132813-7.867187.074219-4.421876-3.449219-8.0625-7.867187-8.132813-4.667969-.160156-9.292969-.90625-13.777344-2.21875-4.242188-1.234375-8.683594 1.199219-9.917969 5.441406-1.238281 4.242188 1.199219 8.683594 5.4375 9.921875 5.761719 1.6875 11.714844 2.648438 17.714844 2.855469zm0 0"/><path d="m51.839844 416.863281c3.484375 2.714844 8.511718 2.089844 11.226562-1.394531 2.714844-3.488281 2.089844-8.515625-1.394531-11.230469-3.691406-2.855469-7.011719-6.160156-9.886719-9.839843-1.644531-2.539063-4.578125-3.933594-7.582031-3.605469-3.007813.328125-5.574219 2.320312-6.628906 5.152343-1.058594 2.832032-.429688 6.019532 1.625 8.238282 3.675781 4.730468 7.921875 8.992187 12.640625 12.679687zm0 0"/><path d="m58.585938 270.34375c3.46875-3.136719 7.320312-5.824219 11.460937-8 3.914063-2.054688 5.421875-6.894531 3.367187-10.808594-2.050781-3.914062-6.890624-5.421875-10.804687-3.367187-5.3125 2.796875-10.257813 6.242187-14.730469 10.246093-3.285156 2.957032-3.554687 8.019532-.597656 11.304688 2.953125 3.289062 8.015625 3.558594 11.304688.601562zm0 0"/><path d="m34.574219 386.039062c.765625 0 1.523437-.109374 2.257812-.320312 4.238281-1.242188 6.667969-5.6875 5.425781-9.925781-1.324218-4.484375-2.085937-9.113281-2.257812-13.785157-.019531-2.136718-.917969-4.175781-2.484375-5.632812s-3.660156-2.203125-5.796875-2.070312c-4.410156.160156-7.859375 3.867187-7.703125 8.28125.207031 5.996093 1.164063 11.941406 2.847656 17.703124 1.003907 3.421876 4.148438 5.765626 7.710938 5.75zm0 0"/><path d="m213.726562 432c4.417969 0 8-3.582031 8-8s-3.582031-8-8-8h-16c-4.417968 0-8 3.582031-8 8s3.582032 8 8 8zm0 0"/><path d="m329.144531 240c-4.417969 0-8 3.582031-8 8s3.582031 8 8 8h16c4.417969 0 8-3.582031 8-8s-3.582031-8-8-8zm0 0"/><path d="m31.761719 306.230469c.558593.125 1.128906.1875 1.703125.183593 3.761718-.003906 7.011718-2.625 7.808594-6.300781.988281-4.566406 2.546874-8.992187 4.636718-13.167969 1.988282-3.953124.398438-8.769531-3.554687-10.757812s-8.765625-.394531-10.753907 3.554688c-2.707031 5.386718-4.722656 11.089843-6 16.976562-.449218 2.078125-.050781 4.25 1.105469 6.035156 1.152344 1.785156 2.972657 3.035156 5.054688 3.476563zm0 0"/><path d="m133.726562 432c4.417969 0 8-3.582031 8-8s-3.582031-8-8-8h-16c-4.417968 0-8 3.582031-8 8s3.582032 8 8 8zm0 0"/><path d="m253.726562 432c4.417969 0 8-3.582031 8-8s-3.582031-8-8-8h-16c-4.417968 0-8 3.582031-8 8s3.582032 8 8 8zm0 0"/><path d="m209.144531 240c-4.417969 0-8 3.582031-8 8s3.582031 8 8 8h16c4.417969 0 8-3.582031 8-8s-3.582031-8-8-8zm0 0"/><path d="m249.144531 240c-4.417969 0-8 3.582031-8 8s3.582031 8 8 8h16c4.417969 0 8-3.582031 8-8s-3.582031-8-8-8zm0 0"/><path d="m289.144531 240c-4.417969 0-8 3.582031-8 8s3.582031 8 8 8h16c4.417969 0 8-3.582031 8-8s-3.582031-8-8-8zm0 0"/><path d="m24 338.296875c0 4.417969 3.582031 8 8 8s8-3.582031 8-8v-16c0-4.417969-3.582031-8-8-8s-8 3.582031-8 8zm0 0"/><path d="m129.144531 240c-4.417969 0-8 3.582031-8 8s3.582031 8 8 8h16c4.417969 0 8-3.582031 8-8s-3.582031-8-8-8zm0 0"/><path d="m96 240c-2.5625.003906-5.125.136719-7.671875.40625-4.210937.464844-7.332031 4.125-7.117187 8.355469.210937 4.230469 3.683593 7.558593 7.917968 7.597656.265625 0 .535156-.015625.800782-.046875 2.015624-.207031 4.042968-.3125 6.070312-.3125h9.144531c4.417969 0 8-3.582031 8-8s-3.582031-8-8-8zm0 0"/><path d="m169.144531 240c-4.417969 0-8 3.582031-8 8s3.582031 8 8 8h16c4.417969 0 8-3.582031 8-8s-3.582031-8-8-8zm0 0"/><path d="m64 176c2.488281 0 4.839844-1.160156 6.351562-3.136719 5.894532-7.695312 57.648438-76.167969 57.648438-108.863281 0-35.347656-28.652344-64-64-64s-64 28.652344-64 64c0 32.695312 51.753906 101.167969 57.648438 108.863281 1.511718 1.976563 3.863281 3.136719 6.351562 3.136719zm0-160c26.5.027344 47.972656 21.5 48 48 0 20.367188-30.398438 66.398438-48 90.609375-17.601562-24.210937-48-70.242187-48-90.609375.027344-26.5 21.5-47.972656 48-48zm0 0"/></svg>